Coordinates
version=1
nRows=21
nColumns=27
inDegrees=yes

Units are S.I. units (second, meters, Newtons, ...)
If the header above contains a line with 'inDegrees', this indicates whether rotational values are in degrees (yes) or radians (no).

endheader
time	pelvis_rotation	pelvis_tilt	pelvis_list	pelvis_tx	pelvis_ty	pelvis_tz	hip_flexion_r	hip_adduction_r	hip_rotation_r	knee_angle_r	knee_rotation_r	knee_adduction_r	knee_angle_r_beta	ankle_angle_r	subtalar_angle_r	mtp_angle_r	hip_flexion_l	hip_adduction_l	hip_rotation_l	knee_angle_l	knee_rotation_l	knee_adduction_l	knee_angle_l_beta	ankle_angle_l	subtalar_angle_l	mtp_angle_l
      4.78500000	      4.24551332	    -26.24361923	      3.45894160	      0.00964594	      0.41814739	     -1.14191754	    129.85830433	    -47.94528650	     23.84729033	    112.93014822	     -9.92279066	      9.89580708	      1.97100291	     24.32067116	     16.47552109	      0.00000000	    125.55729948	    -44.52431365	     15.70700516	    106.61426539	     -9.92393700	     -9.90874497	      1.86076996	     17.42877168	     31.50635150	      0.00000000
      4.79000000	      4.22794827	    -26.19296284	      3.33145186	      0.00993375	      0.41686906	     -1.14201176	    129.86542094	    -47.96458239	     23.87559251	    113.07363999	     -9.92337960	      9.89595427	      1.97350731	     24.38260640	     16.43682168	      0.00000000	    125.85692000	    -44.42161700	     16.06750107	    106.81137364	     -9.92464646	     -9.90909089	      1.86421015	     17.51684808	     31.45900688	      0.00000000
      4.79500000	      4.26581261	    -26.09523838	      3.36478054	      0.01023103	      0.41552829	     -1.14205178	    130.04963022	    -47.92505426	     24.16217957	    113.24926406	     -9.92391784	      9.89627522	      1.97657253	     24.42114229	     16.34141088	      0.00000000	    125.94943411	    -44.37092203	     16.20731057	    106.98543346	     -9.92541380	     -9.90944628	      1.86724807	     17.57888083	     31.38823518	      0.00000000
      4.80000000	      4.25123955	    -26.04722567	      3.28828419	      0.01047863	      0.41430586	     -1.14212848	    130.11952050	    -47.91931274	     24.25356201	    113.39244046	     -9.92445304	      9.89638442	      1.97907143	     24.46375742	     16.25502731	      0.00000000	    126.19248579	    -44.30778831	     16.48930501	    107.15830215	     -9.92610953	     -9.90975535	      1.87026519	     17.63631478	     31.39221822	      0.00000000
      4.80500000	      4.25471587	    -25.99350125	      3.34775191	      0.01067456	      0.41310478	     -1.14216700	    130.32575678	    -47.81091280	     24.53186928	    113.55021344	     -9.92499004	      9.89672174	      1.98182509	     24.49250322	     16.20801293	      0.00000000	    126.29090737	    -44.32128674	     16.58264597	    107.30838135	     -9.92677986	     -9.90999968	      1.87288457	     17.69071118	     31.35264345	      0.00000000
      4.81000000	      4.25520970	    -25.93770393	      3.15893565	      0.01087727	      0.41196476	     -1.14228006	    130.26207260	    -47.91703370	     24.47784970	    113.66034479	     -9.92552560	      9.89681023	      1.98374725	     24.56028262	     16.18174986	      0.00000000	    126.62486272	    -44.16074893	     16.99056823	    107.48537068	     -9.92733442	     -9.91015182	      1.87597362	     17.72512216	     31.34165555	      0.00000000
      4.81500000	      4.24908442	    -25.92322701	      3.16693684	      0.01103769	      0.41085176	     -1.14231065	    130.45661491	    -47.85251557	     24.66628744	    113.80428524	     -9.92598992	      9.89716572	      1.98625948	     24.56631175	     16.12398722	      0.00000000	    126.81152811	    -44.15911371	     17.14382605	    107.62669459	     -9.92790084	     -9.91056673	      1.87844018	     17.75817744	     31.32072139	      0.00000000
      4.82000000	      4.32803191	    -25.88219023	      3.24956011	      0.01123923	      0.40979060	     -1.14236016	    130.73521721	    -47.85160038	     24.99134703	    113.93935970	     -9.92640572	      9.89723929	      1.98861697	     24.59519554	     16.10564123	      0.00000000	    126.88171755	    -44.13604395	     17.16775422	    107.75181050	     -9.92843655	     -9.91077745	      1.88062387	     17.79111079	     31.30891737	      0.00000000
      4.82500000	      4.27960525	    -25.81381525	      3.24787068	      0.01134554	      0.40882666	     -1.14244038	    130.81886290	    -47.76705587	     25.13198249	    114.05373732	     -9.92683882	      9.89759747	      1.99061324	     24.59707037	     16.11589446	      0.00000000	    126.98816849	    -44.16714228	     17.31496412	    107.87707186	     -9.92898233	     -9.91107106	      1.88281009	     17.86110338	     31.34722482	      0.00000000
      4.83000000	      4.34630076	    -25.83798526	      3.25972125	      0.01144381	      0.40783592	     -1.14248838	    131.08419072	    -47.79368668	     25.34388610	    114.17490277	     -9.92722212	      9.89778336	      1.99272798	     24.58749385	     16.05731939	      0.00000000	    127.20027126	    -44.10241355	     17.41979682	    108.00572979	     -9.92943977	     -9.91134413	      1.88505560	     17.83913014	     31.28214501	      0.00000000
      4.83500000	      4.27112709	    -25.84212852	      3.23910075	      0.01147243	      0.40692672	     -1.14254523	    131.19660698	    -47.68137452	     25.42745021	    114.27113493	     -9.92755832	      9.89780912	      1.99440754	     24.60602115	     16.02077582	      0.00000000	    127.41684272	    -44.16543625	     17.60686324	    108.11779023	     -9.92989485	     -9.91169279	      1.88701142	     17.84306178	     31.32264223	      0.00000000
      4.84000000	      4.29588850	    -25.82183653	      3.12074416	      0.01154234	      0.40604371	     -1.14261283	    131.24857792	    -47.78533924	     25.44417898	    114.36410761	     -9.92797723	      9.89787467	      1.99603022	     24.64153575	     16.03316459	      0.00000000	    127.68447535	    -44.05133284	     17.87157459	    108.23655630	     -9.93025118	     -9.91201965	      1.88908428	     17.83327101	     31.34488067	      0.00000000
      4.84500000	      4.27072742	    -25.85751214	      3.10411502	      0.01154690	      0.40524605	     -1.14269404	    131.42067059	    -47.73904851	     25.54040624	    114.44440736	     -9.92824382	      9.89821338	      1.99743172	     24.61579340	     16.00446541	      0.00000000	    127.92139875	    -44.06679615	     18.02016511	    108.34546492	     -9.93062245	     -9.91205243	      1.89098509	     17.83005652	     31.35534996	      0.00000000
      4.85000000	      4.30659784	    -25.87144171	      3.21959286	      0.01153388	      0.40448612	     -1.14274245	    131.72803236	    -47.66010445	     25.83134784	    114.54302667	     -9.92853003	      9.89838753	      1.99915295	     24.60052580	     15.98188183	      0.00000000	    127.98068487	    -44.11707936	     17.96443253	    108.42411472	     -9.93097589	     -9.91226473	      1.89235779	     17.82901859	     31.35558408	      0.00000000
      4.85500000	      4.33679875	    -25.89484586	      3.14003142	      0.01146115	      0.40379299	     -1.14285282	    131.83335889	    -47.73207635	     25.86061155	    114.60074110	     -9.92881369	      9.89856250	      2.00016026	     24.59088731	     15.96971200	      0.00000000	    128.22951650	    -44.00800775	     18.14526457	    108.52420412	     -9.93125715	     -9.91244580	      1.89410468	     17.79756442	     31.31067685	      0.00000000
      4.86000000	      4.28615135	    -25.95489595	      3.08904176	      0.01137986	      0.40312533	     -1.14291852	    131.96023820	    -47.67888398	     25.87741955	    114.66459172	     -9.92906285	      9.89863600	      2.00127466	     24.58360420	     15.92272965	      0.00000000	    128.50793072	    -44.02833155	     18.32553339	    108.61419387	     -9.93154306	     -9.91265307	      1.89567530	     17.77931123	     31.32847090	      0.00000000
      4.86500000	      4.32888260	    -25.96432854	      3.20983625	      0.01131800	      0.40252174	     -1.14299201	    132.25072279	    -47.61369251	     26.15886338	    114.74105840	     -9.92928426	      9.89888345	      2.00260926	     24.56752270	     15.96857133	      0.00000000	    128.53403341	    -44.07118678	     18.23171170	    108.67218266	     -9.93179593	     -9.91277410	      1.89668739	     17.71865331	     31.30144604	      0.00000000
      4.87000000	      4.34486208	    -26.03327474	      3.21983035	      0.01114453	      0.40200023	     -1.14309221	    132.45916349	    -47.58158066	     26.25582982	    114.78654643	     -9.92946264	      9.89888084	      2.00340317	     24.46775479	     15.85629750	      0.00000000	    128.71532431	    -44.04254917	     18.27357654	    108.74588574	     -9.93202811	     -9.91287342	      1.89797375	     17.72076953	     31.20704791	      0.00000000
      4.87500000	      4.37061558	    -26.08487473	      3.03744660	      0.01100280	      0.40150979	     -1.14321847	    132.45365916	    -47.73226718	     26.10871380	    114.81230260	     -9.92968675	      9.89906478	      2.00385270	     24.47868473	     15.77055993	      0.00000000	    129.05701382	    -43.85409764	     18.55468800	    108.83740250	     -9.93212782	     -9.91296829	      1.89957102	     17.71085260	     31.18226249	      0.00000000
      4.88000000	      4.37165843	    -26.14396804	      3.14816920	      0.01077222	      0.40108288	     -1.14328620	    132.71698095	    -47.59471920	     26.31158835	    114.86155114	     -9.92975121	      9.89892999	      2.00471225	     24.44490982	     15.74845450	      0.00000000	    129.12866799	    -43.91641627	     18.45605152	    108.88346168	     -9.93234808	     -9.91309211	      1.90037491	     17.65094966	     31.06624230	      0.00000000
      4.88500000	      4.39595068	    -26.21492989	      3.25268471	      0.01056494	      0.40069395	     -1.14338523	    133.00278012	    -47.49252152	     26.51066778	    114.90870784	     -9.92980874	      9.89915299	      2.00553529	     24.36338950	     15.65072690	      0.00000000	    129.19635292	    -43.94460340	     18.34920199	    108.93588426	     -9.93241653	     -9.91328646	      1.90128985	     17.66517448	     30.93076786	      0.00000000
